<?xml version="1.0" encoding="UTF-8" standalone="no"?>
<svg
   viewBox="0 0 180 180"
   version="1.1"
   id="svg334"
   xml:space="preserve"
   width="180"
   height="180"
   xmlns:xlink="http://www.w3.org/1999/xlink"
   xmlns="http://www.w3.org/2000/svg"
   xmlns:svg="http://www.w3.org/2000/svg"><defs
     id="defs338"><linearGradient
       id="linearGradient1200"><stop
         style="stop-color:#bc1528;stop-opacity:1;"
         offset="0"
         id="stop1198" /><stop
         style="stop-color:#a11222;stop-opacity:1;"
         offset="1"
         id="stop1196" /></linearGradient><radialGradient
       xlink:href="#linearGradient1200"
       id="radialGradient1"
       cx="21.456154"
       cy="78.368561"
       fx="21.456154"
       fy="78.368561"
       r="32"
       gradientUnits="userSpaceOnUse"
       gradientTransform="matrix(-5.157346e-6,-4.8725297,7.0306335,0,-460.67065,260.4667)" /></defs><path
     fill="#FF8700"
     d="M 3e-6,0 H 180 V 180 H 3e-6 Z"
     id="path330"
     style="fill:url(#radialGradient1);fill-opacity:1;stroke-width:2.81308" /><g
     id="g8"
     transform="matrix(3.3394831,0,0,3.3394831,-13.566908,-289.75753)"
     style="stroke-width:0.842371"><rect
       style="fill:#ffffff;stroke:none;stroke-width:22.4906;stroke-linecap:round;stroke-linejoin:round;paint-order:fill markers stroke"
       id="rect3"
       width="60.786995"
       height="0.64656323"
       x="-2.1054027"
       y="119.49992" /><path
       style="font-weight:900;font-size:36.2612px;line-height:1.15;font-family:'Source Serif 4 Display';-inkscape-font-specification:'Source Serif 4 Display Heavy';text-align:center;letter-spacing:-1.43235px;text-anchor:middle;fill:#ffffff;stroke-width:0.118195"
       d="m 23.811957,120.14647 h 6.788926 v -0.64656 l -1.104547,-0.24247 c -0.08082,-1.40088 -0.08082,-3.23281 -0.08082,-4.71453 v -4.12184 c 0.619624,-0.45799 1.293129,-0.72739 1.885813,-0.72739 0.862085,0 1.347008,0.48493 1.347008,1.83193 v 3.0173 c 0,1.48172 0,3.31365 -0.08082,4.71453 l -1.104547,0.24247 v 0.64656 h 6.681166 v -0.64656 l -1.104548,-0.24247 c -0.08082,-1.40088 -0.08082,-3.23281 -0.08082,-4.71453 v -3.152 c 0,-2.77483 -1.40089,-4.06796 -3.448344,-4.06796 -1.58947,0 -2.85566,0.64656 -4.094907,2.34379 v -3.09812 l 0.107761,-5.63049 -0.431044,-0.32329 -5.388037,1.40089 v 0.53881 l 1.40089,0.43103 v 11.55734 c 0,1.48172 0,3.31365 -0.08082,4.71453 l -1.212308,0.24247 z"
       id="text29-3"
       aria-label="chf" /><path
       style="font-weight:900;font-size:36.2612px;line-height:1.15;font-family:'Source Serif 4 Display';-inkscape-font-specification:'Source Serif 4 Display Heavy';text-align:center;letter-spacing:-1.43235px;text-anchor:middle;fill:#ffffff;stroke-width:0.118195"
       d="m 18.720283,109.02301 c 2.209096,0 3.879388,-0.88902 4.930055,-2.96342 l -0.404102,-0.37715 c -0.700445,0.64655 -1.508651,1.0776 -2.478497,1.0776 -2.155215,0 -3.448345,-1.67029 -3.448345,-4.90312 0,-4.175722 1.454772,-5.334154 2.505438,-5.334154 h 0.08081 l 0.05388,1.454765 c 0.05388,2.047459 1.023727,2.640139 1.993573,2.640139 0.915966,0 1.45477,-0.4041 1.751111,-1.347004 0,-1.885818 -1.535589,-3.502222 -4.310429,-3.502222 -3.933267,0 -6.600345,2.370734 -6.600345,6.788936 0,4.20266 2.640138,6.46563 5.92684,6.46563 z"
       id="path1"
       aria-label="chf" /><path
       style="font-weight:900;font-size:36.2612px;line-height:1.15;font-family:'Source Serif 4 Display';-inkscape-font-specification:'Source Serif 4 Display Heavy';text-align:center;letter-spacing:-1.43235px;text-anchor:middle;fill:#ffffff;stroke-width:0.118195"
       d="m 38.248722,131.6777 h 7.651011 v -0.64657 L 43.9331,130.70786 c -0.08082,-1.4009 -0.08082,-3.17895 -0.08082,-4.63372 v -5.92684 h 2.586259 v -0.86209 H 43.82534 c -0.16164,-3.20588 -0.10776,-5.03781 0.862087,-6.5734 l 0.404102,0.8082 c 0.700445,1.37395 1.45477,1.91276 2.424617,1.91276 0.889025,0 1.670291,-0.48493 1.724171,-1.48171 -0.296342,-1.48171 -1.858872,-2.07439 -3.340582,-2.07439 -1.616411,0 -2.990361,0.45798 -4.121848,1.50864 -1.131488,1.05067 -1.966634,2.99036 -2.128274,5.46886 l -0.02694,0.32328 -1.48171,0.32329 v 0.64656 h 1.40089 v 5.92684 c 0,1.48171 0,3.31364 -0.08082,4.71453 l -1.212308,0.24246 z"
       id="path2"
       aria-label="chf" /><rect
       style="fill:#ffffff;stroke:none;stroke-width:14.0962;stroke-linecap:round;stroke-linejoin:round;paint-order:fill markers stroke"
       id="rect2"
       width="17.92614"
       height="0.86126965"
       x="46.07386"
       y="119.28521" /><rect
       style="fill:#ffffff;stroke:none;stroke-width:18.8589;stroke-linecap:round;stroke-linejoin:round;paint-order:fill markers stroke"
       id="rect6"
       width="42.74099"
       height="0.64656323"
       x="-2.1054027"
       y="121.43961" /><rect
       style="fill:#ffffff;stroke:none;stroke-width:18.8589;stroke-linecap:round;stroke-linejoin:round;paint-order:fill markers stroke"
       id="rect6-5"
       width="42.74099"
       height="0.64656323"
       x="-2.1054027"
       y="123.3793" /><circle
       style="fill:#ffffff;stroke:none;stroke-width:4.11669;stroke-linecap:round;stroke-linejoin:round;paint-order:fill markers stroke"
       id="path7"
       cx="46.441971"
       cy="122.73273"
       r="1.2931265" /></g></svg>
