<?xml version="1.0" encoding="UTF-8" standalone="no"?>
<!-- Created with Inkscape (http://www.inkscape.org/) -->

<svg
   width="512"
   height="512"
   viewBox="0 0 512 511.99999"
   version="1.1"
   id="svg5"
   xmlns="http://www.w3.org/2000/svg"
   xmlns:svg="http://www.w3.org/2000/svg">
  <defs
     id="defs2" />
  <path
     id="circle4-0"
     style="fill:#000000;stroke-width:10.2308;stroke-linecap:round;stroke-linejoin:round;paint-order:fill markers stroke"
     d="m 425.72656,0.313475 c -41.74459,0 -77.2262,11.82711 -106.44726,38.96094 -29.22137,27.134136 -50.79039,77.227775 -54.96485,141.236325 l -0.69531,8.34961 -38.25586,8.34766 H 0 l 19.9082,16.69921 h 241.625 v 33.38281 H 59.69531 l 19.892581,16.69922 H 261.5332 v 33.39649 H 119.39063 l 19.89453,16.69921 H 261.5332 v 52.88477 c 0,38.266 -0.001,85.57716 -2.08789,121.75586 l -31.30664,6.26172 -0.004,16.69923 H 425.72646 V 494.9873 l -50.78906,-8.34766 c -2.0867,-36.179 -2.08594,-82.09971 -2.08594,-119.66992 v -153.0625 h 66.79102 71.93164 l -26.50381,-22.24609 h -45.42773 v -0.0176 H 372.1543 C 367.97984,108.85001 369.37129,61.539275 394.41797,21.881835 l 10.4375,20.871093 c 18.08927,35.483053 37.56999,49.398438 62.61719,49.398438 22.95938,0 43.13545,-12.523229 44.52734,-38.265625 C 504.34687,15.619815 463.99294,0.313475 425.72656,0.313475 Z m 14.00391,246.966795 a 33.395679,33.395679 0 0 0 -33.39649,33.39648 33.395679,33.395679 0 0 0 33.39649,33.39649 33.395679,33.395679 0 0 0 33.39453,-33.39649 33.395679,33.395679 0 0 0 -33.39453,-33.39648 z" />
</svg>
