<?xml version="1.0" encoding="UTF-8" standalone="no"?>
<!-- Created with Inkscape (http://www.inkscape.org/) -->

<svg
   width="60"
   height="38"
   viewBox="0 0 60 38"
   version="1.1"
   id="svg1"
   xmlns="http://www.w3.org/2000/svg"
   xmlns:svg="http://www.w3.org/2000/svg">
  <defs
     id="defs1" />
  <g
     id="g80"
     transform="matrix(0.31030399,0,0,0.31030399,-169.40174,-57.244396)"
     style="fill:#9b1526;fill-opacity:1;stroke-width:3.22265">
    <path
       id="circle4"
       style="fill:#9b1526;fill-opacity:1;stroke-width:32.9702;stroke-linecap:round;stroke-linejoin:round;paint-order:fill markers stroke"
       d="m 561.6875,278.64062 2.62695,2.20508 H 672.7168 v -2.20508 z" />
    <path
       id="circle5"
       style="fill:#9b1526;fill-opacity:1;stroke-width:27.9725;stroke-linecap:round;stroke-linejoin:round;paint-order:fill markers stroke"
       d="m 545.92188,265.41211 2.6289,2.20508 H 677.8125 v -2.20508 z" />
    <path
       id="circle6"
       style="fill:#9b1526;fill-opacity:1;stroke-width:32.9702;stroke-linecap:round;stroke-linejoin:round;paint-order:fill markers stroke"
       d="m 553.80469,272.02539 2.62695,2.20508 H 672.7168 v -2.20508 z" />
    <path
       id="path4"
       style="fill:#9b1526;fill-opacity:1;stroke-width:32.9702;stroke-linecap:round;stroke-linejoin:round;paint-order:fill markers stroke"
       d="m 691.25977,264.67969 v 2.9375 h 45.99804 l -3.5,-2.9375 z" />
    <path
       style="font-weight:900;font-size:36.2612px;line-height:1.15;font-family:'Source Serif 4 Display';-inkscape-font-specification:'Source Serif 4 Display Heavy';text-align:center;letter-spacing:-1.43235px;text-anchor:middle;fill:#9b1526;fill-opacity:1;stroke-width:1.54206"
       d="m 615.34227,267.6143 h 23.15211 v -2.20495 l -3.76679,-0.82689 c -0.27555,-4.77739 -0.27555,-11.02479 -0.27555,-16.07786 v -14.05662 c 2.11307,-1.56188 4.40993,-2.48061 6.43113,-2.48061 2.93994,0 4.59368,1.65375 4.59368,6.24739 v 10.28984 c 0,5.05307 0,11.30047 -0.27555,16.07786 l -3.76682,0.82689 v 2.20495 h 22.78465 v -2.20495 l -3.76682,-0.82689 c -0.27555,-4.77739 -0.27555,-11.02479 -0.27555,-16.07786 v -10.7492 c 0,-9.46294 -4.77743,-13.87288 -11.75984,-13.87288 -5.42053,0 -9.73859,2.20495 -13.96475,7.99298 v -10.56545 l 0.3675,-19.20154 -1.47001,-1.10251 -18.37468,4.77743 v 1.83749 l 4.77743,1.46993 v 39.41375 c 0,5.05307 0,11.30047 -0.27555,16.07786 l -4.13432,0.82689 z"
       id="text29-3"
       aria-label="chf" />
    <path
       style="font-weight:900;font-size:36.2612px;line-height:1.15;font-family:'Source Serif 4 Display';-inkscape-font-specification:'Source Serif 4 Display Heavy';text-align:center;letter-spacing:-1.43235px;text-anchor:middle;fill:#9b1526;fill-opacity:1;stroke-width:1.54206"
       d="m 597.97822,229.6802 c 7.53365,0 13.2298,-3.0318 16.81288,-10.10609 l -1.37809,-1.28618 c -2.38873,2.20491 -5.14495,3.67491 -8.45238,3.67491 -7.3499,0 -11.75983,-5.69615 -11.75983,-16.721 0,-14.24038 4.9612,-18.19095 8.54425,-18.19095 h 0.27555 l 0.18381,4.96115 c 0.18381,6.98241 3.49121,9.00361 6.79863,9.00361 3.12371,0 4.9612,-1.37809 5.97181,-4.59366 0,-6.43116 -5.23679,-11.94355 -14.69977,-11.94355 -13.41355,0 -22.50903,8.08486 -22.50903,23.15216 0,14.33224 9.00361,22.0496 20.21217,22.0496 z"
       id="path1"
       aria-label="chf" />
    <path
       style="font-weight:900;font-size:36.2612px;line-height:1.15;font-family:'Source Serif 4 Display';-inkscape-font-specification:'Source Serif 4 Display Heavy';text-align:center;letter-spacing:-1.43235px;text-anchor:middle;fill:#9b1526;fill-opacity:1;stroke-width:1.54206"
       d="m 664.57564,306.939 h 26.09207 v -2.20498 l -6.70675,-1.10244 c -0.27555,-4.77746 -0.27555,-10.84111 -0.27555,-15.80228 v -20.21217 h 8.81986 v -2.93997 h -8.91173 c -0.55124,-10.93294 -0.3675,-17.18033 2.93996,-22.41712 l 1.3781,2.75618 c 2.38869,4.68556 4.96117,6.52305 8.26862,6.52305 3.03181,0 5.69616,-1.65375 5.8799,-5.05305 -1.0106,-5.05304 -6.33929,-7.07424 -11.39234,-7.07424 -5.51241,0 -10.19796,1.56184 -14.05662,5.14488 -3.8587,3.58308 -6.70679,10.19796 -7.25803,18.65033 l -0.0917,1.10248 -5.05305,1.10251 v 2.20495 h 4.77743 v 20.21217 c 0,5.05305 0,11.30044 -0.27555,16.07786 l -4.13428,0.82686 z"
       id="path2"
       aria-label="chf" />
    <circle
       style="fill:#9b1526;fill-opacity:1;stroke:none;stroke-width:53.7089;stroke-linecap:round;stroke-linejoin:round;paint-order:fill markers stroke"
       id="path7"
       cx="692.51691"
       cy="276.43414"
       r="4.4099212" />
  </g>
</svg>
