<?xml version="1.0" encoding="UTF-8" standalone="no"?>
<!-- Created with Inkscape (http://www.inkscape.org/) -->

<svg
   width="60"
   height="38"
   viewBox="0 0 60 38"
   version="1.1"
   id="svg1"
   xmlns:xlink="http://www.w3.org/1999/xlink"
   xmlns="http://www.w3.org/2000/svg"
   xmlns:svg="http://www.w3.org/2000/svg">
  <defs
     id="defs1">
    <linearGradient
       id="linearGradient2">
      <stop
         style="stop-color:#9b1526;stop-opacity:1;"
         offset="0"
         id="stop2" />
      <stop
         style="stop-color:#ca1428;stop-opacity:1;"
         offset="1"
         id="stop3" />
    </linearGradient>
    <radialGradient
       xlink:href="#linearGradient2"
       id="radialGradient3"
       cx="31.801743"
       cy="35.875027"
       fx="31.801743"
       fy="35.875027"
       r="29.686523"
       gradientTransform="matrix(0,-0.84594887,0.95799082,-5.0349142e-6,2.3371332,52.01611)"
       gradientUnits="userSpaceOnUse" />
  </defs>
  <path
     id="circle4"
     style="fill:url(#radialGradient3);fill-opacity:1;stroke-width:10.2308;stroke-linecap:round;stroke-linejoin:round;paint-order:fill markers stroke"
     d="M 16.865234 0 C 12.702956 0 9.8808594 2.5081505 9.8808594 7.1835938 C 9.8808594 11.630945 12.674283 14.025391 16.152344 14.025391 C 18.490065 14.025391 20.25925 13.085806 21.371094 10.890625 L 20.943359 10.492188 C 20.202126 11.176379 19.346621 11.630859 18.320312 11.630859 C 16.03961 11.630859 14.669922 9.8644143 14.669922 6.4433594 C 14.669922 2.0245126 16.210431 0.79882813 17.322266 0.79882812 L 17.408203 0.79882812 L 17.464844 2.3378906 C 17.521884 4.5045603 18.547914 5.1308594 19.574219 5.1308594 C 20.543519 5.1308594 21.114137 4.7048354 21.427734 3.7070312 C 21.427735 1.7114167 19.801635 0 16.865234 0 z M 27.128906 5.1289062 L 21.427734 6.6113281 L 21.427734 7.1816406 L 22.910156 7.6367188 L 22.910156 19.867188 C 22.910156 21.435175 22.909719 23.374979 22.824219 24.857422 L 21.541016 25.113281 L 0 25.113281 L 0.81640625 25.798828 L 38.1875 25.798828 L 38.1875 27.166016 L 2.4453125 27.166016 L 3.2617188 27.849609 L 38.1875 27.849609 L 38.1875 29.21875 L 4.8925781 29.21875 L 5.7070312 29.902344 L 38.1875 29.902344 L 38.1875 32.070312 C 38.1875 33.638295 38.187063 35.576142 38.101562 37.058594 L 36.818359 37.316406 L 36.818359 38 L 44.916016 38 L 44.916016 37.316406 L 42.833984 36.974609 C 42.748484 35.492144 42.748047 33.609784 42.748047 32.070312 L 42.748047 25.798828 L 45.486328 25.798828 L 59.373047 25.798828 L 58.287109 24.886719 L 45.486328 24.886719 L 42.720703 24.886719 C 42.549651 21.494184 42.606495 19.554684 43.632812 17.929688 L 44.060547 18.785156 C 44.801767 20.239104 45.598685 20.808594 46.625 20.808594 C 47.565783 20.808594 48.394157 20.297004 48.451172 19.242188 C 48.137579 17.674208 46.483997 17.046875 44.916016 17.046875 C 43.205493 17.046875 41.750091 17.530747 40.552734 18.642578 C 39.355364 19.754422 38.471833 21.806884 38.300781 24.429688 L 38.273438 24.771484 L 36.708984 25.113281 L 36.705078 25.113281 L 35.539062 24.857422 C 35.453562 23.374979 35.453125 21.435176 35.453125 19.867188 L 35.453125 16.53125 C 35.453125 13.594862 33.971357 12.226562 31.804688 12.226562 C 30.122675 12.226562 28.782097 12.910982 27.470703 14.707031 L 27.470703 11.429688 L 27.585938 5.4707031 L 27.128906 5.1289062 z M 29.466797 14.736328 C 30.379072 14.736328 30.892578 15.248403 30.892578 16.673828 L 30.892578 19.867188 C 30.892578 21.435175 30.892141 23.374979 30.806641 24.857422 L 29.638672 25.113281 L 28.726562 25.113281 L 27.556641 24.857422 C 27.471131 23.374979 27.470703 21.435176 27.470703 19.867188 L 27.470703 15.505859 C 28.126398 15.021201 28.83961 14.736328 29.466797 14.736328 z M 45.488281 27.166016 A 1.3684162 1.3684162 0 0 0 44.121094 28.535156 A 1.3684162 1.3684162 0 0 0 45.488281 29.902344 A 1.3684162 1.3684162 0 0 0 46.857422 28.535156 A 1.3684162 1.3684162 0 0 0 45.488281 27.166016 z " />
</svg>
