<?xml version="1.0" encoding="UTF-8" standalone="no"?>
<!-- Created with Inkscape (http://www.inkscape.org/) -->

<svg
   width="31"
   height="30"
   viewBox="0 0 31 30"
   version="1.1"
   id="svg1"
   xmlns:xlink="http://www.w3.org/1999/xlink"
   xmlns="http://www.w3.org/2000/svg"
   xmlns:svg="http://www.w3.org/2000/svg">
  <defs
     id="defs1">
    <linearGradient
       id="linearGradient2">
      <stop
         style="stop-color:#9b1526;stop-opacity:1;"
         offset="0"
         id="stop2" />
      <stop
         style="stop-color:#ca1428;stop-opacity:1;"
         offset="1"
         id="stop3" />
    </linearGradient>
    <radialGradient
       xlink:href="#linearGradient2"
       id="radialGradient3"
       cx="31.801743"
       cy="35.875027"
       fx="31.801743"
       fy="35.875027"
       r="29.686523"
       gradientTransform="matrix(0,-0.66785437,0.75630854,-3.9749322e-6,-5.955573,41.06535)"
       gradientUnits="userSpaceOnUse" />
  </defs>
  <path
     id="circle4"
     style="fill:url(#radialGradient3);fill-opacity:1;stroke-width:8.07695;stroke-linecap:round;stroke-linejoin:round;paint-order:fill markers stroke"
     d="M 5.51398,0 C 2.227971,0 0,1.9801188 0,5.6712583 0,9.182325 2.205335,11.072677 4.951173,11.072677 c 1.845569,0 3.242294,-0.741778 4.120065,-2.4748152 L 8.733553,8.2833063 C 8.148369,8.8234571 7.47297,9.1822571 6.662726,9.1822571 c -1.800554,0 -2.881887,-1.3945616 -2.881887,-4.0953944 0,-3.4885633 1.216192,-4.45620891 2.093956,-4.45620892 h 0.06785 l 0.04472,1.21504932 c 0.04503,1.7105287 0.855056,2.2049754 1.665296,2.2049754 0.765237,0 1.215725,-0.3363348 1.463302,-1.1240749 C 9.115955,1.3511184 7.832192,0 5.51398,0 Z m 8.102899,4.0491365 -4.500925,1.1703331 v 0.4502467 l 1.170333,0.3592722 v 9.6556335 c 0,1.237885 -3.45e-4,2.769309 -0.06785,3.939659 L 9.205382,19.826274 H 0.03661404 l 0.644531,0.541222 H 22.347348 v 1.079359 H 1.967124 l 0.644531,0.539678 h 19.735693 v 1.080901 H 3.899176 l 0.642989,0.53968 h 17.805183 v 1.711553 c 0,1.237882 -3.45e-4,2.767761 -0.06785,3.938118 l -1.013055,0.203536 V 30 h 6.392887 v -0.539679 l -1.643709,-0.26984 c -0.0675,-1.170367 -0.06785,-2.656441 -0.06785,-3.871814 v -4.951171 h 2.161801 2.334595 l -0.85731,-0.720086 h -1.477276 -2.183388 c -0.135041,-2.678317 -0.09016,-4.209502 0.720086,-5.492393 l 0.337685,0.675369 c 0.585174,1.147854 1.21432,1.597451 2.024569,1.597451 0.742723,0 1.396702,-0.403886 1.441714,-1.236636 -0.247573,-1.237879 -1.553033,-1.733142 -2.790912,-1.733142 -1.350413,0 -2.499415,0.382004 -3.444697,1.259766 -0.945292,0.877771 -1.642816,2.498136 -1.777857,4.568771 l -0.02159,0.269839 -1.235095,0.269839 h -0.0031 l -0.920539,-0.201993 c -0.0675,-1.17035 -0.06785,-2.701774 -0.06785,-3.939659 v -2.633635 c 0,-2.318201 -1.169817,-3.3984381 -2.880345,-3.3984381 -1.327905,0 -2.386256,0.5403321 -3.421567,1.9582651 V 9.0234379 l 0.09098,-4.7044618 z m 1.845704,7.5848065 c 0.720217,0 1.125616,0.40427 1.125616,1.529605 v 2.521074 c 0,1.237885 -3.45e-4,2.769309 -0.06785,3.939659 l -0.922081,0.201993 H 14.878181 L 13.95456,19.624281 c -0.06751,-1.17035 -0.06785,-2.701774 -0.06785,-3.939659 v -3.443154 c 0.517654,-0.382625 1.080716,-0.607525 1.575864,-0.607525 z m 12.64854,9.812912 c -0.596493,5.36e-4 -1.079674,0.484407 -1.079358,1.0809 5.35e-4,0.595892 0.483466,1.078824 1.079358,1.079359 0.596494,3.16e-4 1.080366,-0.482865 1.080901,-1.079359 3.16e-4,-0.597096 -0.483805,-1.081216 -1.080901,-1.0809 z" />
</svg>
