<?xml version="1.0" encoding="UTF-8" standalone="no"?>
<!-- Created with Inkscape (http://www.inkscape.org/) -->

<svg
   width="150"
   height="95"
   viewBox="0 0 150 95"
   version="1.1"
   id="svg1"
   xmlns:xlink="http://www.w3.org/1999/xlink"
   xmlns="http://www.w3.org/2000/svg"
   xmlns:svg="http://www.w3.org/2000/svg">
  <style>
    :root {
      --chf-a: #a11222;
      --chf-b: #bc1528;
    }
    @media (prefers-color-scheme: dark) {
      :root {
      --chf-a: #bc1528;
      --chf-b: #a11222;
      }
    }
  </style>
  <defs
     id="defs1">
    <linearGradient
       id="linearGradient2">
      <stop
         style="stop-color:var(--chf-a);stop-opacity:1;"
         offset="0"
         id="stop2" />
      <stop
         style="stop-color:var(--chf-b);stop-opacity:1;"
         offset="1"
         id="stop3" />
    </linearGradient>
    <radialGradient
       xlink:href="#linearGradient2"
       id="radialGradient3"
       cx="31.801743"
       cy="35.875027"
       fx="31.801743"
       fy="35.875027"
       r="29.686523"
       gradientTransform="matrix(0,-2.1148722,2.3949771,-1.2587285e-5,6.626533,130.04027)"
       gradientUnits="userSpaceOnUse" />
  </defs>
  <path
     id="circle4"
     style="fill:url(#radialGradient3);fill-opacity:1;stroke-width:10.2308;stroke-linecap:round;stroke-linejoin:round;paint-order:fill markers stroke"
     d="M 42.946785,0 C 32.54109,0 25.485849,6.2703762 25.485849,17.958984 c 0,11.118378 6.983559,17.104493 15.678711,17.104493 5.844303,0 10.267265,-2.348962 13.046875,-7.836915 L 53.142098,26.23047 c -1.853083,1.710477 -3.991845,2.846678 -6.557618,2.846678 -5.701755,0 -9.125975,-4.416112 -9.125975,-12.968749 0,-11.0471175 3.851273,-14.1113287 6.63086,-14.1113287 h 0.21485 l 0.1416,3.8476562 c 0.1426,5.4166745 2.707675,6.9824225 5.273438,6.9824225 2.42325,0 3.849795,-1.06506 4.633787,-3.559571 C 54.353037,4.2785418 50.287788,0 42.946785,0 Z m 25.65918,12.822266 -14.25293,3.706054 v 1.425781 l 3.706055,1.137696 V 49.66797 c 0,3.919967 -0.0011,8.769477 -0.21485,12.475585 l -3.208008,0.639648 H 0.7837 L 2.8247156,64.49707 H 96.25245 v 3.41797 H 6.8969812 L 8.937997,69.624022 H 96.25245 v 3.422853 H 13.015145 l 2.036133,1.708985 H 96.25245 v 5.41992 c 0,3.919957 -0.0011,8.764575 -0.21485,12.470705 l -3.208008,0.64453 V 95 h 20.244138 v -1.708985 l -5.20508,-0.854493 C 107.6549,88.73036 107.6538,84.02446 107.6538,80.17578 V 64.49707 h 6.84571 34.71679 l -2.71483,-2.280273 h -32.00195 -6.91406 C 107.15783,53.73546 107.29994,48.88671 109.86573,44.82422 l 1.06934,2.13867 c 1.85305,3.63487 3.84534,5.058595 6.41113,5.058595 2.35196,0 4.42289,-1.278975 4.56543,-3.916015 -0.78398,-3.91995 -4.91794,-5.488283 -8.83789,-5.488283 -4.27631,0 -7.91481,1.20968 -10.90821,3.989258 -2.99342,2.77961 -5.202247,7.910765 -5.629877,14.467775 l -0.06835,0.85449 -3.911134,0.854492 h -0.0098 L 89.631378,62.143555 C 89.417627,58.437447 89.416527,53.58794 89.416527,49.66797 v -8.339845 c 0,-7.34097 -3.70442,-10.76172 -9.121092,-10.76172 -4.205033,0 -7.556477,1.71105 -10.834963,6.201173 V 28.57422 L 69.74856,13.676758 Z m 5.844727,24.018554 c 2.280688,0 3.564453,1.280187 3.564453,4.84375 v 7.9834 c 0,3.919967 -0.0011,8.769477 -0.21485,12.475585 l -2.919923,0.639648 H 72.600098 L 69.675295,62.143555 C 69.46152,58.437447 69.460445,53.58794 69.460445,49.66797 V 38.764647 C 71.099683,37.553002 72.882712,36.84082 74.45068,36.84082 Z M 114.5044,67.91504 a 3.4210405,3.4210405 0 0 0 -3.41796,3.42285 3.4210405,3.4210405 0 0 0 3.41796,3.41797 3.4210405,3.4210405 0 0 0 3.42285,-3.41797 3.4210405,3.4210405 0 0 0 -3.42285,-3.42285 z" />
</svg>
