<?xml version="1.0" encoding="UTF-8" standalone="no"?>
<svg
   viewBox="0 0 64 64"
   version="1.1"
   id="svg334"
   sodipodi:docname="Extension.svg"
   inkscape:version="1.3 (0e150ed6c4, 2023-07-21)"
   xml:space="preserve"
   inkscape:export-filename="chf.png"
   inkscape:export-xdpi="1500"
   inkscape:export-ydpi="1500"
   xmlns:inkscape="http://www.inkscape.org/namespaces/inkscape"
   xmlns:sodipodi="http://sodipodi.sourceforge.net/DTD/sodipodi-0.dtd"
   xmlns:xlink="http://www.w3.org/1999/xlink"
   xmlns="http://www.w3.org/2000/svg"
   xmlns:svg="http://www.w3.org/2000/svg"><defs
     id="defs338"><linearGradient
       inkscape:collect="always"
       id="linearGradient1200"><stop
         style="stop-color:#ca1428;stop-opacity:1;"
         offset="0"
         id="stop1198" /><stop
         style="stop-color:#9b1526;stop-opacity:1;"
         offset="1"
         id="stop1196" /></linearGradient><radialGradient
       inkscape:collect="always"
       xlink:href="#linearGradient1200"
       id="radialGradient1"
       cx="21.456154"
       cy="78.368561"
       fx="21.456154"
       fy="78.368561"
       r="32"
       gradientUnits="userSpaceOnUse"
       gradientTransform="matrix(0,-1.732455,1.6108918,1.1567074e-6,-94.133103,92.61029)" /></defs><sodipodi:namedview
     id="namedview336"
     pagecolor="#ffffff"
     bordercolor="#666666"
     borderopacity="1.0"
     inkscape:showpageshadow="2"
     inkscape:pageopacity="0.0"
     inkscape:pagecheckerboard="0"
     inkscape:deskcolor="#d1d1d1"
     showgrid="false"
     showguides="true"
     inkscape:zoom="5.2149127"
     inkscape:cx="34.804034"
     inkscape:cy="31.352394"
     inkscape:window-width="1440"
     inkscape:window-height="831"
     inkscape:window-x="0"
     inkscape:window-y="0"
     inkscape:window-maximized="1"
     inkscape:current-layer="svg334" /><path
     fill="#FF8700"
     d="M0 0h64v64H0z"
     id="path330"
     style="fill:url(#radialGradient1);fill-opacity:1" /><path
     style="font-weight:900;font-size:36.2612px;line-height:1.15;font-family:'Source Serif 4 Display';-inkscape-font-specification:'Source Serif 4 Display Heavy';text-align:center;letter-spacing:-1.43235px;text-anchor:middle;fill:#ffffff;stroke-width:0.18886"
     d="m 16.134209,45.616079 c 2.973419,0 5.221613,-1.196619 6.6358,-3.988732 l -0.543918,-0.507656 c -0.942791,0.870268 -2.030627,1.450448 -3.33603,1.450448 -2.900896,0 -4.641434,-2.248195 -4.641434,-6.599539 0,-5.620486 1.958105,-7.179717 3.372292,-7.179717 h 0.108783 l 0.07252,1.958104 c 0.07252,2.755852 1.377925,3.553598 2.683328,3.553598 1.232881,0 1.958105,-0.543918 2.356978,-1.81306 0,-2.538284 -2.066888,-4.713956 -5.801792,-4.713956 -5.294135,0 -8.8839936,3.190986 -8.8839936,9.137822 0,5.656748 3.5535976,8.702688 7.9774636,8.702688 z M 22.824356,45.0359 h 9.137823 v -0.870269 l -1.486709,-0.32635 c -0.108784,-1.885583 -0.108784,-4.351344 -0.108784,-6.34571 v -5.547964 c 0.834008,-0.61644 1.740538,-0.979052 2.538284,-0.979052 1.160358,0 1.81306,0.652701 1.81306,2.465761 v 4.061255 c 0,1.994366 0,4.460127 -0.108784,6.34571 l -1.486709,0.32635 V 45.0359 h 8.992778 v -0.870269 l -1.486709,-0.32635 c -0.108784,-1.885583 -0.108784,-4.351344 -0.108784,-6.34571 V 33.25101 c 0,-3.734903 -1.885582,-5.475441 -4.641434,-5.475441 -2.13941,0 -3.843687,0.870269 -5.511702,3.154724 v -4.170038 l 0.145045,-7.57859 -0.580179,-0.435135 -7.25224,1.885583 v 0.725224 l 1.885582,0.580179 v 15.556055 c 0,1.994366 0,4.460127 -0.108784,6.34571 l -1.631754,0.32635 z m 19.309077,0 h 10.298181 v -0.870269 l -2.647068,-0.435134 c -0.108784,-1.885582 -0.108784,-4.278822 -0.108784,-6.236926 v -7.977464 h 3.481076 v -1.160359 h -3.517337 c -0.217567,-4.315083 -0.145045,-6.780844 1.160359,-8.847733 l 0.543918,1.087836 c 0.942791,1.849322 1.958104,2.574546 3.263508,2.574546 1.196619,0 2.248194,-0.652702 2.320716,-1.994366 -0.398873,-1.994366 -2.502022,-2.792113 -4.496388,-2.792113 -2.175672,0 -4.024994,0.616441 -5.547964,2.030627 -1.52297,1.414187 -2.647068,4.024994 -2.864635,7.361024 l -0.03626,0.435134 -1.994366,0.435135 v 0.870269 h 1.885582 v 7.977464 c 0,1.994366 0,4.460127 -0.108783,6.34571 l -1.631754,0.32635 z"
     id="text29"
     aria-label="chf" /></svg>
