<?xml version="1.0" encoding="UTF-8" standalone="no"?>
<!-- Created with Inkscape (http://www.inkscape.org/) -->

<svg
   width="80"
   height="120"
   viewBox="0 0 80 120"
   version="1.1"
   id="svg1"
   xml:space="preserve"
   xmlns:xlink="http://www.w3.org/1999/xlink"
   xmlns="http://www.w3.org/2000/svg"
   xmlns:svg="http://www.w3.org/2000/svg"><defs
     id="defs1"><style
       id="style1">.a{fill:none;stroke:#000000;stroke-linecap:round;stroke-linejoin:round;}</style><linearGradient
       id="linearGradient443"><stop
         style="stop-color:#95e043;stop-opacity:1"
         offset="0"
         id="stop439" /><stop
         style="stop-color:#5ac918;stop-opacity:1"
         offset="0.38555849"
         id="stop7158" /><stop
         style="stop-color:#389000;stop-opacity:1"
         offset="1"
         id="stop441" /></linearGradient><radialGradient
       xlink:href="#linearGradient443"
       id="radialGradient445"
       cx="328.36234"
       cy="-252.65175"
       fx="328.36234"
       fy="-252.65175"
       r="256"
       gradientUnits="userSpaceOnUse"
       gradientTransform="matrix(2.4572947,0,1.8852033e-5,1.7595188,-548.10145,867.47731)" /><radialGradient
       xlink:href="#linearGradient443"
       id="radialGradient445-5"
       cx="328.36234"
       cy="-252.65175"
       fx="328.36234"
       fy="-252.65175"
       r="256"
       gradientUnits="userSpaceOnUse"
       gradientTransform="matrix(2.4572947,0,1.8852033e-5,1.7595188,-568.30253,1305.0645)" /></defs><rect
     style="fill:#ffffff;fill-opacity:1;stroke:#920000;stroke-width:1;stroke-linecap:round;stroke-linejoin:round;stroke-dasharray:none;stroke-opacity:1"
     id="rect10"
     width="79"
     height="119"
     x="0.5"
     y="0.5"
     ry="4.5"
     rx="4.5" /><rect
     style="fill:#f5adb5;fill-opacity:1;stroke:none;stroke-width:1;stroke-linecap:round;stroke-linejoin:round;stroke-dasharray:none;stroke-opacity:1"
     id="rect11"
     width="74"
     height="114"
     x="3"
     y="3"
     ry="3"
     rx="3" /><path
     id="path11"
     style="baseline-shift:baseline;display:inline;overflow:visible;opacity:1;vector-effect:none;fill:#ffffff;stroke-linecap:round;stroke-linejoin:round;enable-background:accumulate;stop-color:#000000;stop-opacity:1"
     d="m 39.98242,42.982422 c -7.64869,0 -13.94002,3.587597 -14.68555,4.029297 a 0.5,0.5 0 0 0 -0.12109,0.07813 0.50005,0.50005 0 0 0 -0.0234,0.01953 0.5,0.5 0 0 0 -0.004,0.0039 0.50005,0.50005 0 0 0 -0.16601,0.369141 v 24 a 0.50005,0.50005 0 0 0 0.24023,0.427734 c 0,0 6.60942,4.072266 14.75977,4.072266 8.15034,0 14.76171,-4.072266 14.76171,-4.072266 a 0.50005,0.50005 0 0 0 0.23829,-0.427734 v -7.851563 a 0.5,0.5 0 0 0 0,-0.261718 v -7.738282 a 0.5,0.5 0 0 0 0,-0.261718 v -7.769532 a 0.5,0.5 0 0 0 -0.0566,-0.392578 0.5,0.5 0 0 0 -0.30274,-0.222656 C 53.69025,46.438418 47.48898,42.982422 39.9824,42.982422 Z m 0,1 c 6.43588,0 11.76711,2.588017 13.45703,3.505859 C 51.48918,48.516737 46.1903,50.96875 40,50.96875 c -6.20745,0 -11.51802,-2.464913 -13.45508,-3.488281 1.71023,-0.927017 7.02528,-3.498047 13.4375,-3.498047 z m -14,4.332031 c 1.94334,1.04046 7.47632,3.654297 14.01758,3.654297 6.50224,0 12.0082,-2.582003 13.98242,-3.634766 v 6.888672 C 52.71753,55.939739 46.91538,59 40,59 33.01826,59 27.17122,55.881199 25.98242,55.203125 Z m 0,8.03125 C 27.92576,57.386163 33.45874,60 40,60 c 6.50224,0 12.0082,-2.582003 13.98242,-3.634766 v 6.857422 C 52.71753,63.939739 46.91538,67 40,67 33.01826,67 27.17122,63.881199 25.98242,63.203125 Z m 0,8 C 27.92576,65.386163 33.45874,68 40,68 c 6.50224,0 12.0082,-2.582003 13.98242,-3.634766 v 6.804688 c -0.35408,0.212641 -6.40804,3.8125 -14,3.8125 -7.59415,0 -13.64924,-3.60377 -14,-3.814453 z" /></svg>
